/* XPM */
static char *b38d3cc5416d4ab5fb3e795457cb7d56mtAPdnljWGN2IIHH[] = {
/* columns rows colors chars-per-pixel */
"64 64 11 1 ",
"  c #676767",
". c #686868",
"X c #747474",
"o c gray50",
"O c #239698",
"+ c #1ED0D6",
"@ c #77E7D1",
"# c gray56",
"$ c #8DADB1",
"% c #A2A2A2",
"& c #D5FFF6",
/* pixels */
"oooooo########oooooXXXoooXXXoooXXooooXXXoooXXXXXoooo##ooXXXXoooo",
"ooo########oo###ooXooXXXooXXXXoooXX....XXX..XooXXo###ooXXXoooooo",
"o######ooo##ooooooooXXXXXX#####oX..XXX....XXXXooooXXXoooXXXXXXoo",
"ooooo###ooooooooooooooXXX####oooooXXXXXX.XXXXXXXXooXXXoooooXXXXo",
"oooooXXXXoooooooXoo###ooooooXXXX##oooo##oooooooXXXXX..XXXooooXXX",
"####XooXXXXXooXXXXXXo##oooXXXXXoo###ooo###ooXX..XX...XXXooXXXXXo",
"o##oooXXXXXoooo...XXXXooXXXXooo####oXXXXoooXXXXX...    XXXXoo##o",
"#####oooXXXXX..@+..XXXXXXXXXXXooXXooooXXXXXoooXXX ..@&@  XXXoo##",
"oooooXXXXX....O+@@.XXXXXXX..X.....XXXXXXXXXXXXoo  +@&&@+@ XXXXoo",
"oooXXXXX.......@+@O#XoooXXXX...XXX..XXXXXXXXXXXXo+@&&@&@+OXXXXXo",
"o###ooXXXXX...XO+++OXXXoooXX..@+..XXXXoooXXXXooo+++@+&@+O%XXoooo",
"##oXXXXXXXXXXXXX+OO$#XoooXX..&@&@..XooooXXooooo#O+O+@+OO%XXXXooo",
"ooooXXXXoooooXXo$$$##oXXXXX.@&&&&&@@####oooooo##%O+++O%%XXXooXXo",
"ooXXXXooXXoo########XXXXoooo+@&&@@++O##ooXXoooo#%$OOO%%...XXXXoo",
"XXooooo#########ooXXo###ooXX%O+@&+OO$ooXXXoXXo#o#%$$%#XX.XooooXX",
"oXXX####ooo######ooo###ooXXXX%++OO$$##oooooo########XXX...XXoooo",
"XXXXXXoooo###ooooXXXXooXXXXooo%%$$###ooo#####ooooo###oooXXXXXXXo",
"oooXXXXXoooo##XX....XXXXoooooooo##ooo##########o##oo##oXXooXXXoo",
"ooXXoooXXXXoooooXX.XXXXXXXXXoooooo####oooo######ooooXXXoooXXoooo",
"ooooooXXXXooooXXX...XX    Xooo####o#oooooXXX.....XXXXXXXXoo###oo",
"ooooo####ooXXXXXoooXX &@&@  XXXo###oXXXXXX..&+OO....XX..XXXXo###",
"oo########ooXooXXXX  @&&&&&@  XXoooooXX...&&@@&+O#.XXXX...Xo###o",
"ooooo###ooooooXX   @@&&&&+@++O oooXXXXXX.+@&&&@@++#XXXXXXXXXXXoo",
"oooo#######ooo   @&@&@@&@&+@++OX##ooXX..+@+&&@&+OO#XXXXXXXXXXXXo",
"oXXoooo##ooooX@&&&@+@+@@+@@++O+O%#####XO++&@@@+O+O%oooXXXXXooooo",
"XXXXXXooXXoo#@&&@++O++++@@++O+OO%##ooooOO+@+@++OO%XXXooooooXXooo",
"ooXXXoooooXX#%++++O++O+++++OOOO%oXXooXX#OO+O++OO$#Xoooo###ooXXXo",
"ooooXXXXXXXXXX%OOOOOO+O+OOOO$%%XXooXXXXX#%++OO$$#ooo#####oXXXXoo",
"XXXXXXX  XXX...##%$$$OOOO$$$##ooXXXXoooXXX%%$$##XXXXXXooooooooXX",
"oXXXX   ..........XX%%$$$##oXoXooXXXXXXXXXXXXooooXXXXXXXoooooooo",
"oooX  +@&@..XXX......X##ooXXXXXXooXXXoooXXXXXXXXXXXXoooooooooooo",
"oXXX +&&&&@  X.....XXXXXXXXXXXooXX   XXoooXXXXXXXXooooooXXXXoooo",
"oooX@+@&@@&+%oXX....XXXXooXXoooX  +@@  XXooXXoooXXXXXooooXXXXXoo",
"ooXX+@&@&++O%XXXXXXXXXXXXX####X ++@++@O XXXooooXXXXXooXXXXXXXooo",
"oooX%O++OOO$XXXo###oXXoooooo#X +@&&@&@&@@XXXXXooooooooooXXXooooo",
"oo##%$OO$$$#ooo##oo##oooooooo +@&&&&@@@&&@XXXooXXXXXooooooXXoooo",
"oooooo$$##ooooXo##XXoooo##oooO+&@&@@+&&&@@OO%##oXXoo####oooooooo",
"oooooo###ooXXooXXX  XXooo###oO@@O@@O++O+OOO%####oooooo###ooooooo",
"Xooo###oo###ooo   ++ ....XXo#%OO+O++OOOO%%%ooooooo##o##ooooXXXXX",
"XXXXoooooooXXX   +&@+...XoXXXX%$$OOO+$$%#XXXXooooXXoooooX....XXX",
"X.XoooXooXXXX +O&&@&@O.X.XXXXXXX#%$$$##XXXooooXXXXooXooooXX.XXoo",
"XX..XXoooooooOO+@&&@+O......XX..Xoo##oooXXXoXXooXXXXoXXXXX...XXX",
"ooXXXXXXXXXXX#OO@+&OO$XXXX....XXXXooooooooooooXXX#####oooXXoooXX",
"XXXXoXXXXXXXXX##+OOO$oooXXXXXooooooooooXooooXX   Xoo####oooooooo",
"oooooooooXXXXXXo##$$ooo#####oooooo###oXXXXXX  ++O  XXoXXXXXoo###",
"oXooXXXX..XooXXXXXoo#####ooo##oo####oooXX  ++@@@+OO  XXXXXoo##oo",
"ooXXX....XXXXXXXXoo#######oooXoXXo#XXXX  +@@&&&@&@@++ XXXXXXXXoo",
"XXXoooX...XXooXoooooo###oooXXXXooooX  ++@@&@@@&&@@&@+OXXXXXXoXXo",
"oXXXXXXXXXoooXXXooo###oooXXX...XXX O++@@&&+@&+@@++@+++OXXXXXXooo",
"XXXXXooXooXXoooooooo####oooooXXXX ++@@&&&@@+@@++O++O+OOX....XXXX",
"XXooooXXXXX.XX++#########ooooooXX++@@&@&@++O+O+O+O++OO%XXXX...XX",
"ooooooooX..Xo+&@+o####ooooXoooXXX+@&@@&@+@OO++OOO+OO$%XXXX...XXX",
"o#####oo#oXX+&&&&@&+ooooXXXoooooo%O+@@@++++OOOOO$$$%%Xooooooo##o",
"oo###oo###ooO+@&@@+OOooooXXXooooXX%O+@+O+OO+OO$$%%XXXooooX######",
"#######ooXXooO+O@+OOXoooooooXXXXXXo%OOO+++OOO$$%XXooXXXXXXXooooo",
"ooooooooooXXoo++OOXoooooXXXXXXXXXXXX%%OO+O$$$%XoooooooXXXXXXo##o",
"oooXXXXXoooooooXoooo##oo##XXXXXXXXooXX%%%%%oXXXXooooo#######oo##",
"ooooXXoXXXXXoooo########oooooXXXoooooooooooooooo####ooo########o",
"oXXXX...XXooXXXooo###oooooXXXXXXXXXXooooooooo######o##ooo####ooo",
"ooXX.XXXoooooooooooo##oXXoooXXXXXXoooo#oooXXXooooooooooo##oXXXXo",
"XXoooooooXoXXXXXXXXooooooXXXXXoooooo####oooooXXXXooooXXXXXooooXX",
"ooooooXXXXXooXXXXoXXXoXXXX....XXoo##ooo#####ooXXooXXXXooooXXoooo",
"ooooXXXXooooXXXooooXooooXXXX.XXXXXoooo####ooooooooooXXXooooooooo",
"ooooooooooXXoooooooooooooooXXXXXooooooooooooooooooooooXXoooooooo"
};
